<svg width="44" height="44" viewBox="0 0 44 44" fill="none" xmlns="http://www.w3.org/2000/svg">
<path d="M22 39.4167C29.5185 39.4167 35.75 33.8012 35.75 26.7135C35.75 22.286 33.4895 17.8053 30.9338 14.1332C28.3617 10.4353 25.3935 7.42318 23.793 5.89968C23.3107 5.43714 22.6683 5.17889 22 5.17889C21.3317 5.17889 20.6893 5.43714 20.207 5.89968C18.6065 7.42134 15.6383 10.4353 13.0662 14.1332C10.5105 17.8053 8.25 22.286 8.25 26.7135C8.25 33.8012 14.4815 39.4167 22 39.4167Z" stroke="white" stroke-width="3.83333"/>
<path d="M22 33C20.0551 33 18.1898 32.2274 16.8145 30.8521C15.4393 29.4769 14.6667 27.6116 14.6667 25.6667" stroke="white" stroke-width="3.83333" stroke-linecap="round"/>
</svg>
