<svg width="45" height="44" viewBox="0 0 45 44" fill="none" xmlns="http://www.w3.org/2000/svg">
<path d="M22.5 29.3333C24.7917 29.3333 26.7399 28.5315 28.3447 26.928C29.9494 25.3244 30.7512 23.3762 30.75 21.0833C30.75 18.7916 29.9482 16.844 28.3447 15.2405C26.7411 13.6369 24.7929 12.8345 22.5 12.8333C20.2083 12.8333 18.2607 13.6357 16.6572 15.2405C15.0536 16.8453 14.2512 18.7929 14.25 21.0833C14.25 23.375 15.0524 25.3232 16.6572 26.928C18.2619 28.5328 20.2096 29.3345 22.5 29.3333ZM22.5 26.0333C21.125 26.0333 19.9566 25.5518 18.9947 24.5886C18.0328 23.6255 17.5512 22.4571 17.55 21.0833C17.55 19.7083 18.0316 18.5399 18.9947 17.578C19.9578 16.6161 21.1262 16.1345 22.5 16.1333C23.875 16.1333 25.0441 16.6149 26.0072 17.578C26.9703 18.5411 27.4512 19.7095 27.45 21.0833C27.45 22.4583 26.9691 23.6274 26.0072 24.5905C25.0453 25.5536 23.8762 26.0345 22.5 26.0333ZM22.5 34.8333C18.0389 34.8333 13.975 33.5885 10.3083 31.0988C6.64167 28.6091 3.98334 25.2706 2.33334 21.0833C3.98334 16.8972 6.64167 13.5593 10.3083 11.0696C13.975 8.57998 18.0389 7.33454 22.5 7.33331C26.9611 7.33331 31.025 8.57876 34.6917 11.0696C38.3583 13.5605 41.0167 16.8984 42.6667 21.0833C41.0167 25.2694 38.3583 28.6079 34.6917 31.0988C31.025 33.5897 26.9611 34.8345 22.5 34.8333Z" fill="white" fill-opacity="0.75"/>
</svg>
