<svg width="39" height="38" viewBox="0 0 39 38" fill="none" xmlns="http://www.w3.org/2000/svg">
<path d="M6.6875 11.4375H32.8125C33.4683 11.4375 34 11.9692 34 12.625C34 13.2808 33.4683 13.8125 32.8125 13.8125H6.6875C6.03166 13.8125 5.5 13.2808 5.5 12.625C5.5 11.9692 6.03166 11.4375 6.6875 11.4375Z" fill="#5D5D5D"/>
<path d="M11.4375 17.8125H32.8125C33.4683 17.8125 34 18.3442 34 19C34 19.6558 33.4683 20.1875 32.8125 20.1875H11.4375C10.7817 20.1875 10.25 19.6558 10.25 19C10.25 18.3442 10.7817 17.8125 11.4375 17.8125Z" fill="#5D5D5D"/>
<path d="M6.6875 24.1875H32.8125C33.4683 24.1875 34 24.7192 34 25.375C34 26.0308 33.4683 26.5625 32.8125 26.5625H6.6875C6.03166 26.5625 5.5 26.0308 5.5 25.375C5.5 24.7192 6.03166 24.1875 6.6875 24.1875Z" fill="#5D5D5D"/>
</svg>
