<svg width="44" height="44" viewBox="0 0 44 44" fill="none" xmlns="http://www.w3.org/2000/svg">
<path d="M22 16.5069C23.0878 16.5069 24.1512 16.8295 25.0556 17.4338C25.9601 18.0382 26.6651 18.8971 27.0813 19.9021C27.4976 20.9071 27.6065 22.013 27.3943 23.0799C27.1821 24.1468 26.6583 25.1268 25.8891 25.896C25.1199 26.6652 24.1399 27.189 23.073 27.4012C22.0061 27.6134 20.9002 27.5045 19.8952 27.0882C18.8902 26.672 18.0313 25.967 17.4269 25.0625C16.8226 24.1581 16.5 23.0947 16.5 22.0069C16.5018 20.5488 17.0819 19.1509 18.1129 18.1198C19.144 17.0888 20.5419 16.5087 22 16.5069ZM22 13.7569C20.3683 13.7569 18.7733 14.2408 17.4165 15.1473C16.0598 16.0538 15.0024 17.3423 14.378 18.8498C13.7536 20.3572 13.5902 22.0161 13.9085 23.6164C14.2269 25.2167 15.0126 26.6867 16.1664 27.8405C17.3202 28.9943 18.7902 29.78 20.3905 30.0984C21.9908 30.4167 23.6496 30.2533 25.1571 29.6289C26.6646 29.0045 27.9531 27.9471 28.8596 26.5903C29.7661 25.2336 30.25 23.6386 30.25 22.0069C30.25 19.8189 29.3808 17.7204 27.8336 16.1733C26.2865 14.6261 24.188 13.7569 22 13.7569ZM7.41675 9.3679L9.36375 7.42365L14.1831 12.2444L12.2375 14.1886L7.41675 9.3679ZM2.75 20.6319H9.625V23.3819H2.75V20.6319ZM7.41675 34.6473L12.2375 29.8265L14.1818 31.7708L9.36238 36.5915L7.41675 34.6473ZM20.625 34.3819H23.375V41.2569H20.625V34.3819ZM29.8196 31.7694L31.7639 29.8251L36.5846 34.6459L34.6404 36.5901L29.8196 31.7694ZM34.375 20.6319H41.25V23.3819H34.375V20.6319ZM29.8196 12.243L34.6404 7.42227L36.5846 9.36652L31.7639 14.1873L29.8196 12.243ZM20.625 2.7569H23.375V9.6319H20.625V2.7569Z" fill="white"/>
</svg>
