<svg width="44" height="44" viewBox="0 0 44 44" fill="none" xmlns="http://www.w3.org/2000/svg">
<path d="M31.625 31.625C31.625 33.0837 31.0455 34.4826 30.0141 35.5141C28.9826 36.5455 27.5837 37.125 26.125 37.125C23.7703 37.125 21.493 35.5902 20.7109 33.4778C20.5919 33.1377 20.6112 32.7645 20.7645 32.4385C20.9179 32.1125 21.1931 31.8596 21.5309 31.7344C21.8687 31.6092 22.2422 31.6216 22.571 31.7689C22.8998 31.9162 23.1577 32.1867 23.2891 32.5222C23.6741 33.562 24.9219 34.375 26.125 34.375C26.8543 34.375 27.5538 34.0853 28.0695 33.5695C28.5853 33.0538 28.875 32.3543 28.875 31.625C28.875 30.8957 28.5853 30.1962 28.0695 29.6805C27.5538 29.1647 26.8543 28.875 26.125 28.875H6.875C6.51033 28.875 6.16059 28.7301 5.90273 28.4723C5.64487 28.2144 5.5 27.8647 5.5 27.5C5.5 27.1353 5.64487 26.7856 5.90273 26.5277C6.16059 26.2699 6.51033 26.125 6.875 26.125H26.125C27.5837 26.125 28.9826 26.7045 30.0141 27.7359C31.0455 28.7674 31.625 30.1663 31.625 31.625ZM20.625 17.875C22.0837 17.875 23.4826 17.2955 24.5141 16.2641C25.5455 15.2326 26.125 13.8337 26.125 12.375C26.125 10.9163 25.5455 9.51736 24.5141 8.48591C23.4826 7.45446 22.0837 6.875 20.625 6.875C18.2703 6.875 15.993 8.40984 15.2109 10.5222C15.0919 10.8623 15.1112 11.2355 15.2645 11.5615C15.4179 11.8875 15.6931 12.1404 16.0309 12.2656C16.3687 12.3908 16.7422 12.3784 17.071 12.2311C17.3998 12.0838 17.6577 11.8133 17.7891 11.4778C18.1741 10.438 19.4219 9.625 20.625 9.625C21.3543 9.625 22.0538 9.91473 22.5695 10.4305C23.0853 10.9462 23.375 11.6457 23.375 12.375C23.375 13.1043 23.0853 13.8038 22.5695 14.3195C22.0538 14.8353 21.3543 15.125 20.625 15.125H4.125C3.76033 15.125 3.41059 15.2699 3.15273 15.5277C2.89487 15.7856 2.75 16.1353 2.75 16.5C2.75 16.8647 2.89487 17.2144 3.15273 17.4723C3.41059 17.7301 3.76033 17.875 4.125 17.875H20.625ZM35.75 12.375C33.3953 12.375 31.118 13.9098 30.3359 16.0222C30.2169 16.3623 30.2362 16.7355 30.3895 17.0615C30.5429 17.3875 30.8181 17.6404 31.1559 17.7656C31.4937 17.8908 31.8672 17.8784 32.196 17.7311C32.5248 17.5838 32.7827 17.3133 32.9141 16.9778C33.2991 15.938 34.5469 15.125 35.75 15.125C36.4793 15.125 37.1788 15.4147 37.6945 15.9305C38.2103 16.4462 38.5 17.1457 38.5 17.875C38.5 18.6043 38.2103 19.3038 37.6945 19.8195C37.1788 20.3353 36.4793 20.625 35.75 20.625H5.5C5.13533 20.625 4.78559 20.7699 4.52773 21.0277C4.26987 21.2856 4.125 21.6353 4.125 22C4.125 22.3647 4.26987 22.7144 4.52773 22.9723C4.78559 23.2301 5.13533 23.375 5.5 23.375H35.75C37.2087 23.375 38.6076 22.7955 39.6391 21.7641C40.6705 20.7326 41.25 19.3337 41.25 17.875C41.25 16.4163 40.6705 15.0174 39.6391 13.9859C38.6076 12.9545 37.2087 12.375 35.75 12.375Z" fill="white"/>
</svg>
